<?xml version="1.0" encoding="UTF-8" standalone="no"?>
<svg
   width="13.213984"
   height="14.459709"
   viewBox="0 0 12.400815 14.459709"
   fill="none"
   version="1.1"
   id="svg3"
   sodipodi:docname="icon-twitter.svg"
   inkscape:export-filename="icon-twitter.svg"
   inkscape:export-xdpi="23.63077"
   inkscape:export-ydpi="23.63077"
   inkscape:version="1.3.2 (091e20e, 2023-11-25)"
   xmlns:inkscape="http://www.inkscape.org/namespaces/inkscape"
   xmlns:sodipodi="http://sodipodi.sourceforge.net/DTD/sodipodi-0.dtd"
   xmlns="http://www.w3.org/2000/svg"
   xmlns:svg="http://www.w3.org/2000/svg">
  <sodipodi:namedview
     id="namedview3"
     pagecolor="#ffffff"
     bordercolor="#000000"
     borderopacity="0.25"
     inkscape:showpageshadow="2"
     inkscape:pageopacity="0.0"
     inkscape:pagecheckerboard="0"
     inkscape:deskcolor="#d1d1d1"
     inkscape:zoom="7.2615384"
     inkscape:cx="15.561441"
     inkscape:cy="13.771187"
     inkscape:window-width="1312"
     inkscape:window-height="449"
     inkscape:window-x="94"
     inkscape:window-y="336"
     inkscape:window-maximized="0"
     inkscape:current-layer="svg3" />
  <path
     d="M 11.160675,3.2012479 C 10.957136,1.6476114 9.638553,0.42324038 8.075491,0.18598889 7.8117741,0.14589943 6.8126234,0 4.4980964,0 H 4.4808099 C 2.1656331,0 1.6689389,0.14589943 1.4052224,0.18598889 -0.11432531,0.41666677 -1.5020169,1.5168288 -1.838699,3.0888625 c -0.16194,0.7741956 -0.1792222,1.6325022 -0.1491384,2.4198226 0.042885,1.1290814 0.051206,2.256183 0.1510587,3.3806597 0.069031,0.7469445 0.1894535,1.4879272 0.3603645,2.2174092 0.3200405,1.347268 1.61556139,2.468451 2.8848426,2.925868 1.3589393,0.477014 2.8203844,0.556209 4.2206769,0.228708 0.1540405,-0.0368 0.3061746,-0.0795 0.4563808,-0.128157 0.3405091,-0.11105 0.7392899,-0.235272 1.0324454,-0.453457 0.00403,-0.0031 0.00733,-0.007 0.00964,-0.01157 0.00234,-0.0045 0.00364,-0.0095 0.00381,-0.01472 v -1.089637 c -8.66e-5,-0.0048 -0.00119,-0.0095 -0.00327,-0.01384 -0.00207,-0.0043 -0.00507,-0.0081 -0.00875,-0.01098 -0.00369,-0.003 -0.00797,-0.005 -0.012542,-0.0061 -0.00455,-10e-4 -0.00929,-10e-4 -0.013842,4.5e-5 -0.8971646,0.220054 -1.8165113,0.330348 -2.7389126,0.328613 -1.5873895,0 -2.0143312,-0.773528 -2.1365714,-1.095557 -0.098286,-0.278356 -0.1606955,-0.568685 -0.1856288,-0.863619 -2.599e-4,-0.0049 6.282e-4,-0.0099 0.00258,-0.01444 0.00195,-0.0045 0.00492,-0.0085 0.00866,-0.01166 0.00375,-0.0031 0.00814,-0.0053 0.012867,-0.0064 0.00472,-0.0011 0.00962,-9.56e-4 0.014297,2.9e-4 0.882196,0.218542 1.7865526,0.328836 2.6940934,0.328591 0.2182474,0 0.4358882,0 0.6541573,-0.0059 0.9127397,-0.02629 1.8747829,-0.07426 2.7728146,-0.254335 0.0224,-0.0046 0.04482,-0.0085 0.06401,-0.01446 1.416495,-0.279317 2.764495,-1.1560205 2.901487,-3.3760543 0.0051,-0.087403 0.01792,-0.9154781 0.01792,-1.0061738 6.28e-4,-0.3082367 0.09666,-2.1865318 -0.01408,-3.340573 z"
     fill="url(#paint0_linear_89_8)"
     id="path1"
     style="fill:url(#paint0_linear_89_8);stroke-width:0.219521"
     inkscape:export-filename="./path1.svg"
     inkscape:export-xdpi="106.2262"
     inkscape:export-ydpi="106.2262" />
  <path
     d="M 8.91655,4.9467804 V 8.8065462 H 7.4270955 V 5.0604783 c 0,-0.7886551 -0.3200385,-1.1908577 -0.9710114,-1.1908577 -0.715613,0 -1.0740586,0.4758136 -1.0740586,1.4156285 V 7.335726 H 3.9015392 V 5.2852491 c 0,-0.9398149 -0.3590954,-1.4156285 -1.0747086,-1.4156285 -0.6471171,0 -0.9703615,0.4022026 -0.9703615,1.1908577 V 8.8065462 H 0.36764289 V 4.9467804 c 0,-0.7886551 0.1960869,-1.4151835 0.588239,-1.8796074 C 1.3604248,2.6038391 1.8910421,2.3659434 2.5496835,2.3659434 c 0.7623387,0 1.3384034,0.3009847 1.7224538,0.9023309 l 0.3705981,0.638808 0.3712481,-0.638808 C 5.3980339,2.6669281 5.9740987,2.3659434 6.7351592,2.3659434 c 0.6580131,0 1.1886305,0.2378957 1.5944298,0.7012296 0.39174,0.463979 0.587394,1.0905296 0.586961,1.8796074 z"
     fill="#ffffff"
     id="path2"
     style="stroke-width:0.219521" />
  <defs
     id="defs3">
    <linearGradient
       id="paint0_linear_89_8"
       x1="30.5"
       y1="0"
       x2="30.5"
       y2="65"
       gradientUnits="userSpaceOnUse"
       gradientTransform="matrix(0.21662271,0,0,0.22245719,-2,0)">
      <stop
         stop-color="#6364FF"
         id="stop2" />
      <stop
         offset="1"
         stop-color="#563ACC"
         id="stop3" />
    </linearGradient>
  </defs>
</svg>
